<svg xmlns="http://www.w3.org/2000/svg" width="16.849" height="21" viewBox="0 0 16.849 21">
  <g id="Group_3194" data-name="Group 3194" transform="translate(-1213 -138)">
    <path id="Path_531" data-name="Path 531" d="M1.575,0h9.707a1.575,1.575,0,0,1,1.575,1.575V16a1.575,1.575,0,0,1-1.575,1.575H1.575A1.575,1.575,0,0,1,0,16V1.575A1.575,1.575,0,0,1,1.575,0Z" transform="translate(1213 138)" fill="#edd363"/>
    <path id="Path_420" data-name="Path 420" d="M62.8,51.3v7.2H70A7.588,7.588,0,0,0,62.8,51.3Z" transform="translate(1159.852 95.169)" fill="#b8b7a6"/>
    <path id="Path_421" data-name="Path 421" d="M48.44,63.369V58.04a5.347,5.347,0,0,0-4.97,5.329,5.43,5.43,0,0,0,5.342,5.342,5.26,5.26,0,0,0,5.329-4.97h-5.7Z" transform="translate(1173.848 90.289)" fill="#2b351b" opacity="0.8" style="mix-blend-mode: multiply;isolation: isolate"/>
  </g>
</svg>
