<svg id="Group_62" data-name="Group 62" xmlns="http://www.w3.org/2000/svg" width="16" height="16" viewBox="0 0 16 16">
  <rect id="Rectangle_37" data-name="Rectangle 37" width="16" height="16" fill="none"/>
  <g id="Icons_Orange-01" transform="translate(1.888 1)">
    <path id="Path_7" data-name="Path 7" d="M69.356,7.723a1.2,1.2,0,0,1,0-1.693l5.68-5.68A1.2,1.2,0,1,1,76.73,2.043l-5.68,5.68a1.2,1.2,0,0,1-1.693,0Z" transform="translate(-69.004 0.001)" fill="#558c4b"/>
    <path id="Path_8" data-name="Path 8" d="M75.046,102.23l-5.68-5.68a1.2,1.2,0,0,1,1.693-1.693l5.68,5.68a1.2,1.2,0,0,1-1.693,1.693Z" transform="translate(-69.015 -88.824)" fill="#558c4b"/>
    <path id="Path_9" data-name="Path 9" d="M0,95.7a1.2,1.2,0,0,1,1.2-1.2h9.829a1.2,1.2,0,1,1,0,2.394H1.2A1.2,1.2,0,0,1,0,95.7Z" transform="translate(0.002 -88.819)" fill="#558c4b"/>
  </g>
</svg>
