<svg id="Group_62" data-name="Group 62" xmlns="http://www.w3.org/2000/svg" width="16" height="16" viewBox="0 0 16 16">
  <rect id="Rectangle_37" data-name="Rectangle 37" width="16" height="16" fill="none"/>
  <g id="Icons_Orange-01" transform="translate(1.888 1)">
    <path id="Path_7" data-name="Path 7" d="M76.73,7.723a1.2,1.2,0,0,0,0-1.693L71.049.349a1.2,1.2,0,0,0-1.693,1.693l5.68,5.68a1.2,1.2,0,0,0,1.693,0Z" transform="translate(-64.857 0.001)" fill="#fff"/>
    <path id="Path_8" data-name="Path 8" d="M71.059,102.23l5.68-5.68a1.2,1.2,0,0,0-1.693-1.693l-5.68,5.68a1.2,1.2,0,0,0,1.693,1.693Z" transform="translate(-64.866 -88.824)" fill="#fff"/>
    <path id="Path_9" data-name="Path 9" d="M12.223,95.7a1.2,1.2,0,0,0-1.2-1.2H1.2a1.2,1.2,0,1,0,0,2.394h9.829A1.2,1.2,0,0,0,12.223,95.7Z" transform="translate(0 -88.819)" fill="#fff"/>
  </g>
</svg>
