<svg xmlns="http://www.w3.org/2000/svg" width="386" height="150" viewBox="0 0 386 150">
  <g id="Group_3328" data-name="Group 3328" transform="translate(82.587 0.292)">
    <circle id="Ellipse_7" data-name="Ellipse 7" cx="37.5" cy="37.5" r="37.5" transform="translate(-6.587 -0.292)" fill="#558c4b"/>
    <ellipse id="Ellipse_8" data-name="Ellipse 8" cx="37" cy="37.5" rx="37" ry="37.5" transform="translate(151.413 74.708)" fill="#edd363"/>
    <ellipse id="Ellipse_82" data-name="Ellipse 82" cx="37" cy="37.5" rx="37" ry="37.5" transform="translate(-80.587 74.708)" fill="#edd363"/>
    <path id="Rectangle_442" data-name="Rectangle 442" d="M0,0H0A73,73,0,0,1,73,73v4a0,0,0,0,1,0,0H0a0,0,0,0,1,0,0V0A0,0,0,0,1,0,0Z" transform="translate(70.413 74.708) rotate(90)" fill="#edd363"/>
    <path id="Rectangle_443" data-name="Rectangle 443" d="M0,0H0A74,74,0,0,1,74,74v5a0,0,0,0,1,0,0H0a0,0,0,0,1,0,0V0A0,0,0,0,1,0,0Z" transform="translate(70.413 74.708) rotate(-90)" fill="#b8b7a6"/>
    <path id="Rectangle_446" data-name="Rectangle 446" d="M0,0H0A74,74,0,0,1,74,74v2a0,0,0,0,1,0,0H0a0,0,0,0,1,0,0V0A0,0,0,0,1,0,0Z" transform="translate(225.413 0.708) rotate(90)" fill="#f0ebb4"/>
    <path id="Rectangle_717" data-name="Rectangle 717" d="M0,0H0A74,74,0,0,1,74,74v2a0,0,0,0,1,0,0H0a0,0,0,0,1,0,0V0A0,0,0,0,1,0,0Z" transform="translate(-6.587 0.708) rotate(90)" fill="#f0ebb4"/>
    <path id="Rectangle_487" data-name="Rectangle 487" d="M0,0H0A74,74,0,0,1,74,74v3a0,0,0,0,1,0,0H0a0,0,0,0,1,0,0V0A0,0,0,0,1,0,0Z" transform="translate(302.413 0.708) rotate(90)" fill="#faf9e7"/>
    <path id="Rectangle_488" data-name="Rectangle 488" d="M0,0H3A75,75,0,0,1,78,75v0a0,0,0,0,1,0,0H0a0,0,0,0,1,0,0V0A0,0,0,0,1,0,0Z" transform="translate(225.413 74.708)" fill="#b8b7a6"/>
    <path id="Rectangle_489" data-name="Rectangle 489" d="M0,0H74a0,0,0,0,1,0,0V4A74,74,0,0,1,0,78H0a0,0,0,0,1,0,0V0A0,0,0,0,1,0,0Z" transform="translate(71.413 147.708) rotate(-90)" fill="#4f9d40"/>
  </g>
</svg>
