<svg xmlns="http://www.w3.org/2000/svg" xmlns:xlink="http://www.w3.org/1999/xlink" width="1441" height="240.001" viewBox="0 0 1441 240.001">
  <defs>
    <clipPath id="clip-path">
      <rect id="Rectangle_427" data-name="Rectangle 427" width="160" height="81" transform="translate(-0.044 0.424)" fill="#f0ebb4"/>
    </clipPath>
    <clipPath id="clip-path-2">
      <rect id="Rectangle_423" data-name="Rectangle 423" width="239" height="122" transform="translate(-0.954 0.585)" fill="#558c4b"/>
    </clipPath>
  </defs>
  <g id="Group_3311" data-name="Group 3311" transform="translate(0 -8736)">
    <rect id="Rectangle_666" data-name="Rectangle 666" width="1440" height="240" transform="translate(0 8736)" fill="#b8b7a6"/>
    <g id="Group_3267" data-name="Group 3267" transform="translate(1 -134)">
      <rect id="Rectangle_402" data-name="Rectangle 402" width="1440" height="239" transform="translate(0 8870)" fill="#edd363"/>
      <rect id="Rectangle_403" data-name="Rectangle 403" width="80" height="80" rx="40" transform="translate(0 8870.001)" fill="#558c4b"/>
      <rect id="Rectangle_409" data-name="Rectangle 409" width="80" height="80" rx="40" transform="translate(358 9030)" fill="#558c4b"/>
      <rect id="Rectangle_417" data-name="Rectangle 417" width="80" height="80" rx="40" transform="translate(918 9030.001)" fill="#558c4b"/>
      <rect id="Rectangle_421" data-name="Rectangle 421" width="80" height="80" rx="40" transform="translate(1078 8870.001)" fill="#4f9d40"/>
      <rect id="Rectangle_406" data-name="Rectangle 406" width="160" height="160" rx="80" transform="translate(267 8870.001)" fill="#f0ebb4"/>
      <rect id="Rectangle_414" data-name="Rectangle 414" width="160" height="160" rx="80" transform="translate(678 8950)" fill="#558c4b"/>
      <path id="Rectangle_404" data-name="Rectangle 404" d="M0,0H187a0,0,0,0,1,0,0V0a80,80,0,0,1-80,80H0a0,0,0,0,1,0,0V0A0,0,0,0,1,0,0Z" transform="translate(80 8870.001)" fill="#2b351b"/>
      <path id="Rectangle_408" data-name="Rectangle 408" d="M80,0h91a0,0,0,0,1,0,0V80a0,0,0,0,1,0,0H0a0,0,0,0,1,0,0v0A80,80,0,0,1,80,0Z" transform="translate(187 9030)" fill="#2b351b"/>
      <path id="Rectangle_411" data-name="Rectangle 411" d="M0,0H160a0,0,0,0,1,0,0V80a0,0,0,0,1,0,0H80A80,80,0,0,1,0,0V0A0,0,0,0,1,0,0Z" transform="translate(518 9030.001)" fill="#2b351b"/>
      <path id="Rectangle_416" data-name="Rectangle 416" d="M0,0H160a0,0,0,0,1,0,0V80a0,0,0,0,1,0,0H80A80,80,0,0,1,0,0V0A0,0,0,0,1,0,0Z" transform="translate(758 8870.001)" fill="#2b351b"/>
      <path id="Rectangle_407" data-name="Rectangle 407" d="M0,0H80a80,80,0,0,1,80,80v0a0,0,0,0,1,0,0H0a0,0,0,0,1,0,0V0A0,0,0,0,1,0,0Z" transform="translate(507 8870.001) rotate(90)" fill="#2b351b"/>
      <path id="Rectangle_419" data-name="Rectangle 419" d="M0,0H80a80,80,0,0,1,80,80v0a0,0,0,0,1,0,0H0a0,0,0,0,1,0,0V0A0,0,0,0,1,0,0Z" transform="translate(918 9030.001) rotate(-90)" fill="#558c4b"/>
      <path id="Rectangle_420" data-name="Rectangle 420" d="M80,0h80a0,0,0,0,1,0,0V0A80,80,0,0,1,80,80H0a0,0,0,0,1,0,0v0A80,80,0,0,1,80,0Z" transform="translate(998 9030.001) rotate(-90)" fill="#f0ebb4"/>
      <path id="Rectangle_433" data-name="Rectangle 433" d="M80,0h80a0,0,0,0,1,0,0V0A80,80,0,0,1,80,80H0a0,0,0,0,1,0,0v0A80,80,0,0,1,80,0Z" transform="translate(1317 8870.001) rotate(90)" fill="#b8b7a6"/>
      <path id="Rectangle_415" data-name="Rectangle 415" d="M0,0H80a80,80,0,0,1,80,80v0a0,0,0,0,1,0,0H0a0,0,0,0,1,0,0V0A0,0,0,0,1,0,0Z" transform="translate(918 8950.001) rotate(90)" fill="#f0ebb4"/>
      <rect id="Rectangle_405" data-name="Rectangle 405" width="80" height="80" transform="translate(187 8950)" fill="#b8b7a6"/>
      <rect id="Rectangle_410" data-name="Rectangle 410" width="80" height="80" transform="translate(438 9030)" fill="#558c4b"/>
      <rect id="Rectangle_413" data-name="Rectangle 413" width="80" height="80" transform="translate(678 8870)" fill="#558c4b"/>
      <rect id="Rectangle_418" data-name="Rectangle 418" width="80" height="80" transform="translate(998 9030)" fill="#b8b7a6"/>
      <rect id="Rectangle_432" data-name="Rectangle 432" width="80" height="80" transform="translate(1237 9030)" fill="#2b351b"/>
      <rect id="Rectangle_424" data-name="Rectangle 424" width="80" height="160" transform="translate(1078 8950)" fill="#2b351b"/>
      <g id="Group_2688" data-name="Group 2688" transform="translate(1078 8950)">
        <rect id="Rectangle_21" data-name="Rectangle 21" width="159" height="160" rx="79.5" transform="translate(0 0)" fill="#f0ebb4"/>
        <path id="Subtraction_2" data-name="Subtraction 2" d="M31,62a31.229,31.229,0,0,1-6.248-.63,30.83,30.83,0,0,1-11.085-4.665A31.091,31.091,0,0,1,2.436,43.067,30.845,30.845,0,0,1,.63,37.248a31.3,31.3,0,0,1,0-12.5A30.83,30.83,0,0,1,5.294,13.668,31.091,31.091,0,0,1,18.933,2.436,30.844,30.844,0,0,1,24.752.63a31.3,31.3,0,0,1,12.5,0A30.83,30.83,0,0,1,48.332,5.294,31.09,31.09,0,0,1,59.564,18.933a30.845,30.845,0,0,1,1.806,5.819,31.3,31.3,0,0,1,0,12.5,30.83,30.83,0,0,1-4.665,11.085A31.091,31.091,0,0,1,43.067,59.564a30.844,30.844,0,0,1-5.819,1.806A31.23,31.23,0,0,1,31,62Z" transform="translate(49 50)" fill="#558c4b"/>
      </g>
      <path id="Rectangle_425" data-name="Rectangle 425" d="M160,0h27a0,0,0,0,1,0,0V160a0,0,0,0,1,0,0H0a0,0,0,0,1,0,0v0A160,160,0,0,1,160,0Z" transform="translate(0 8950)" fill="#558c4b"/>
      <rect id="Rectangle_426" data-name="Rectangle 426" width="171" height="80" transform="translate(507 8870)" fill="#b8b7a6"/>
      <g id="Mask_Group_4" data-name="Mask Group 4" transform="translate(518.044 8948.575)" clip-path="url(#clip-path)">
        <g id="Group_2690" data-name="Group 2690" transform="translate(-0.044 0.18)">
          <ellipse id="Ellipse_5" data-name="Ellipse 5" cx="80" cy="79" rx="80" ry="79" transform="translate(0 0.244)" fill="#f0ebb4"/>
        </g>
      </g>
      <g id="Mask_Group_3" data-name="Mask Group 3" transform="translate(1317.415 9108.047) rotate(-90)" clip-path="url(#clip-path-2)">
        <g id="Group_2689" data-name="Group 2689" transform="translate(-0.87 0.586)">
          <ellipse id="Ellipse_4" data-name="Ellipse 4" cx="119.5" cy="117" rx="119.5" ry="117" transform="translate(-0.084 0)" fill="#558c4b"/>
        </g>
      </g>
    </g>
  </g>
</svg>
