<svg xmlns="http://www.w3.org/2000/svg" xmlns:xlink="http://www.w3.org/1999/xlink" width="719" height="124" viewBox="0 0 719 124">
  <defs>
    <clipPath id="clip-path">
      <rect id="Rectangle_539" data-name="Rectangle 539" width="235" height="122" transform="translate(0.314 0.072)" fill="#558c4b"/>
    </clipPath>
  </defs>
  <g id="Group_3319" data-name="Group 3319" transform="translate(0 -676)">
    <path id="Rectangle_536" data-name="Rectangle 536" d="M0,0H3A124,124,0,0,1,127,124v0a0,0,0,0,1,0,0H0a0,0,0,0,1,0,0V0A0,0,0,0,1,0,0Z" transform="translate(0 676)" fill="#edd363"/>
    <circle id="Ellipse_7" data-name="Ellipse 7" cx="61.5" cy="61.5" r="61.5" transform="translate(117 800) rotate(-90)" fill="#558c4b"/>
    <path id="Rectangle_537" data-name="Rectangle 537" d="M0,0H0A122,122,0,0,1,122,122v6a0,0,0,0,1,0,0H0a0,0,0,0,1,0,0V0A0,0,0,0,1,0,0Z" transform="translate(230 800) rotate(-90)" fill="#b8b7a6"/>
    <path id="Rectangle_538" data-name="Rectangle 538" d="M0,0H0A122,122,0,0,1,122,122v4a0,0,0,0,1,0,0H0a0,0,0,0,1,0,0V0A0,0,0,0,1,0,0Z" transform="translate(484 678) rotate(90)" fill="#f0ebb4"/>
    <g id="Mask_Group_12" data-name="Mask Group 12" transform="translate(719.314 800.072) rotate(180)" clip-path="url(#clip-path)">
      <g id="Group_2837" data-name="Group 2837" transform="translate(0.029 0.072)">
        <ellipse id="Ellipse_64" data-name="Ellipse 64" cx="117.5" cy="116.5" rx="117.5" ry="116.5" transform="translate(0.285 0)" fill="#558c4b"/>
      </g>
    </g>
  </g>
</svg>
