<svg id="Group_3314" data-name="Group 3314" xmlns="http://www.w3.org/2000/svg" xmlns:xlink="http://www.w3.org/1999/xlink" width="87.873" height="84.511" viewBox="0 0 87.873 84.511">
  <defs>
    <linearGradient id="linear-gradient" x1="0.034" y1="1" x2="1" gradientUnits="objectBoundingBox">
      <stop offset="0" stop-color="#b8b7a6" stop-opacity="0"/>
      <stop offset="1" stop-color="#b8b7a6"/>
    </linearGradient>
  </defs>
  <path id="Path_526" data-name="Path 526" d="M-563.229,281.115c1.291,0,2.015.051,2.064.055l-.073,1a45.8,45.8,0,0,0-5.3.047,76.265,76.265,0,0,0-13.511,2.049A77.586,77.586,0,0,0-598.2,291.17a76.266,76.266,0,0,0-19.221,14.615A81.888,81.888,0,0,0-631.3,325.242a76.108,76.108,0,0,0-6.361,17.511,59.99,59.99,0,0,0-1.645,17.471l-.995.1a39.4,39.4,0,0,1-.07-4.968,70.032,70.032,0,0,1,1.735-12.827,77.107,77.107,0,0,1,6.445-17.742,82.889,82.889,0,0,1,14.057-19.7,77.263,77.263,0,0,1,19.5-14.818,78.591,78.591,0,0,1,18.395-6.993,77.246,77.246,0,0,1,13.688-2.069C-565.216,281.138-564.1,281.115-563.229,281.115Z" transform="translate(640.415 -275.815)" fill="url(#linear-gradient)"/>
  <path id="Polygon_1" data-name="Polygon 1" d="M5.5,0,11,9H0Z" transform="matrix(0.07, 0.998, -0.998, 0.07, 87.106, 0)" fill="#b8b7a6"/>
</svg>
