<svg xmlns="http://www.w3.org/2000/svg" width="206.999" height="207" viewBox="0 0 206.999 207">
  <path id="Subtraction_3" data-name="Subtraction 3" d="M103.5,207a104.265,104.265,0,0,1-20.859-2.1,102.933,102.933,0,0,1-37.009-15.573,103.8,103.8,0,0,1-37.5-45.537A102.979,102.979,0,0,1,2.1,124.359a104.509,104.509,0,0,1,0-41.718A102.932,102.932,0,0,1,17.676,45.632a103.8,103.8,0,0,1,45.537-37.5A102.98,102.98,0,0,1,82.642,2.1,104.266,104.266,0,0,1,103.5,0h.554V104.053H207a104.193,104.193,0,0,1-2.2,20.762,102.945,102.945,0,0,1-15.66,36.819,103.8,103.8,0,0,1-45.476,37.283,102.98,102.98,0,0,1-19.373,5.993A104.268,104.268,0,0,1,103.5,207Z" transform="translate(0)" fill="#b8b7a6"/>
</svg>
